<?xml version="1.0" encoding="UTF-8" standalone="no"?>
<!-- Created with Inkscape (http://www.inkscape.org/) -->

<svg
   xmlns:dc="http://purl.org/dc/elements/1.1/"
   xmlns:cc="http://creativecommons.org/ns#"
   xmlns:rdf="http://www.w3.org/1999/02/22-rdf-syntax-ns#"
   xmlns:svg="http://www.w3.org/2000/svg"
   xmlns="http://www.w3.org/2000/svg"
   xmlns:sodipodi="http://sodipodi.sourceforge.net/DTD/sodipodi-0.dtd"
   xmlns:inkscape="http://www.inkscape.org/namespaces/inkscape"
   width="210mm"
   height="297mm"
   viewBox="0 0 744.09448819 1052.3622047"
   id="svg2"
   version="1.1"
   inkscape:version="0.91 r13725"
   sodipodi:docname="pieces.svg">
  <defs
     id="defs4" />
  <sodipodi:namedview
     id="base"
     pagecolor="#ffffff"
     bordercolor="#666666"
     borderopacity="1.0"
     inkscape:pageopacity="0.0"
     inkscape:pageshadow="2"
     inkscape:zoom="1.5"
     inkscape:cx="237.06687"
     inkscape:cy="954.50337"
     inkscape:document-units="px"
     inkscape:current-layer="layer1"
     showgrid="true"
     inkscape:window-width="1280"
     inkscape:window-height="750"
     inkscape:window-x="-8"
     inkscape:window-y="-8"
     inkscape:window-maximized="1">
    <inkscape:grid
       type="xygrid"
       id="grid4196" />
  </sodipodi:namedview>
  <metadata
     id="metadata7">
    <rdf:RDF>
      <cc:Work
         rdf:about="">
        <dc:format>image/svg+xml</dc:format>
        <dc:type
           rdf:resource="http://purl.org/dc/dcmitype/StillImage" />
        <dc:title></dc:title>
      </cc:Work>
    </rdf:RDF>
  </metadata>
  <g
     inkscape:label="Layer 1"
     inkscape:groupmode="layer"
     id="layer1">
    <path
       id="path4153-9"
       style="fill:#ffffff;fill-rule:evenodd;stroke:#000000;stroke-width:1;stroke-linecap:butt;stroke-linejoin:miter;stroke-miterlimit:4;stroke-dasharray:none;stroke-opacity:1;fill-opacity:1"
       d="m 239.50437,72.73345 0,-8.12294 10.71135,-4.50849 0,-35.13117 -10.85514,-7.10518 0,-14.80247 11.0525,0 0,8.48675 5.13153,0 0.007,-8.22411 11.6446,0 0,8.09202 4.93416,0 0,-8.48675 11.0525,0 0,14.80247 -11.24986,6.71045 0,35.13116 11.10608,4.90322 0,8.12295 z"
       inkscape:connector-curvature="0"
       sodipodi:nodetypes="ccccccccccccccccccccc" />
    <path
       style="fill:#ffffff;fill-opacity:1;fill-rule:evenodd;stroke:#000000;stroke-width:1;stroke-linecap:butt;stroke-linejoin:miter;stroke-miterlimit:4;stroke-dasharray:none;stroke-opacity:1"
       d="m 176.41389,3.00495 c 0.20462,1.82834 -0.16575,3.36918 0.97699,5.66658 -2.39103,0.84673 -1.40815,1.10726 -2.34479,1.954 -1.71621,-3.33831 -3.82331,-4.72218 -6.05738,-5.47119 -0.73523,4.32381 1.8466,5.39727 2.54019,7.81598 -3.57893,2.80072 -6.59443,5.60144 -6.05738,8.40216 0.37886,2.22647 1.52206,3.6886 0.977,6.83899 -3.39627,5.61246 -11.52434,13.80592 -9.76997,16.60894 -0.48506,4.40858 3.80849,7.32666 8.59757,7.42518 1.89933,-0.7839 5.02234,-6.92674 6.44818,-10.55157 8.45754,-9.30607 8.29278,-7.26223 12.50557,-9.96536 -0.91121,3.12838 -1.30873,7.79778 -2.7356,9.37916 -6.14532,5.31811 -12.61767,13.04478 -14.65495,22.47093 l 0.1954,9.18377 45.13725,0 c -7.04751,-26.07238 1.28916,-73.7418 -30.0915,-65.65419 -1.3566,-1.90005 -3.26795,-3.24536 -5.66658,-4.10338 z"
       id="path4173"
       inkscape:connector-curvature="0"
       sodipodi:nodetypes="ccccccccccccccccc" />
    <path
       style="fill:#ffffff;fill-opacity:1;fill-rule:evenodd;stroke:#000000;stroke-width:1;stroke-linecap:butt;stroke-linejoin:miter;stroke-miterlimit:4;stroke-dasharray:none;stroke-opacity:1"
       d="m 113.19176,2.7195 c -3.23133,-0.6507666 -7.88185,4.3705387 -1.01362,6.5885587 -5.41656,5.0659653 -5.09855,5.9165583 -2.31877,12.1537253 -12.638682,7.324091 -4.59952,23.643983 -2.24254,38.780847 l -18.752031,7.855586 0,4.307903 48.653931,-0.760219 0,-5.068121 -20.77929,-6.335149 c 6.61918,-18.496071 9.80529,-34.062175 -1.13006,-38.544909 4.13198,-9.90639 0.78009,-8.056468 -1.40399,-12.1362633 0.0647,-0.929162 6.99068,-3.15001 -1.01363,-6.8419587 z"
       id="path4175"
       inkscape:connector-curvature="0"
       sodipodi:nodetypes="cccccccccccc" />
    <path
       style="fill:#ffffff;fill-rule:evenodd;stroke:#000000;stroke-width:1;stroke-linecap:butt;stroke-linejoin:miter;stroke-miterlimit:4;stroke-dasharray:none;stroke-opacity:1;fill-opacity:1"
       d="m 38.81312,22.798817 c -3.9474,-0.79498 -9.62848,5.33905 -1.23825,8.04858 -7.3059,5.56366 -15.983069,25.82103 -4.33385,28.17003 l -13.620671,7.73902 0,5.26254 38.075981,0 0,-6.19122 -13.31112,-6.81034 c 11.03334,-9.64457 4.35445,-21.33656 -4.33384,-27.86047 0.079,-1.13506 8.53982,-3.84806 -1.23825,-8.35814 z"
       id="path4175-1"
       inkscape:connector-curvature="0"
       sodipodi:nodetypes="cccccccccc" />
    <path
       style="fill:#ffffff;fill-rule:evenodd;stroke:#000000;stroke-width:1;stroke-linecap:butt;stroke-linejoin:miter;stroke-miterlimit:4;stroke-dasharray:none;stroke-opacity:1;fill-opacity:1"
       d="m 409.22123,8.1316533 0,8.0137997 -7.38111,0.21085 0,3.16332 7.59199,0 -0.21088,9.06821 c -5.615,1.09398 -6.54468,4.53055 -7.80288,7.8029 -23.9424,-22.41469 -37.59081,8.21549 -9.06821,24.46305 0.85552,5.60118 -5.11511,4.45386 -3.37421,7.3811 l 48.29347,-0.42175 c 1.17325,-3.78844 -5.11654,-2.81665 -5.06132,-6.53755 23.38826,-7.90026 15.9511,-49.30084 -12.44243,-25.72841 -0.7596,-2.83987 -0.67694,-5.83294 -7.38109,-7.592 l 0.21088,-8.43555 6.11577,0 0,-3.79598 -6.53755,-0.2109 0,-7.3810897 z"
       id="path4192"
       inkscape:connector-curvature="0"
       sodipodi:nodetypes="ccccccccccccccccccc" />
    <path
       style="fill:#ffffff;fill-opacity:1;fill-rule:evenodd;stroke:#000000;stroke-width:1;stroke-linecap:butt;stroke-linejoin:miter;stroke-miterlimit:4;stroke-dasharray:none;stroke-opacity:1"
       d="m 306.22465,70.440072 55.8693,-0.208469 c 0.57818,-18.704354 0.90158,-40.297776 9.17257,-55.452363 -5.6605,6.581081 -11.75749,10.979693 -15.84354,25.43304 -3.61407,-9.798056 -3.75998,-19.10068 -3.54394,-28.351583 -5.693,9.567015 -9.24627,22.190811 -11.04878,37.31569 l -5.21169,-43.9866505 -8.3387,44.8205155 c -0.63441,-11.088821 -3.04965,-26.434888 -8.13023,-35.856409 0.67351,10.792191 -0.61724,19.496819 -4.37782,27.517709 -3.69933,-16.854827 -3.93442,-16.710024 -12.29958,-25.43304 2.63804,12.460669 7.80837,33.18766 3.75241,54.20156 z"
       id="path4194"
       inkscape:connector-curvature="0"
       sodipodi:nodetypes="cccccccccccc" />
    <path
       id="path4153-9-3"
       style="fill:#000000;fill-opacity:1;fill-rule:evenodd;stroke:#ffffff;stroke-width:1;stroke-linecap:butt;stroke-linejoin:miter;stroke-miterlimit:4;stroke-dasharray:none;stroke-opacity:1"
       d="m 239.50437,147.40013 0,-8.12294 10.71135,-4.50849 0,-35.131176 -10.85514,-7.10518 0,-14.80247 11.0525,0 0,8.48675 5.13153,0 0.007,-8.22411 11.6446,0 0,8.09202 4.93416,0 0,-8.48675 11.0525,0 0,14.80247 -11.24986,6.71045 0,35.131166 11.10608,4.90322 0,8.12295 z"
       inkscape:connector-curvature="0"
       sodipodi:nodetypes="ccccccccccccccccccccc" />
    <path
       style="fill:#000000;fill-opacity:1;fill-rule:evenodd;stroke:#ffffff;stroke-width:1;stroke-linecap:butt;stroke-linejoin:miter;stroke-miterlimit:4;stroke-dasharray:none;stroke-opacity:1"
       d="m 176.41389,77.671624 c 0.20462,1.82834 -0.16575,3.36918 0.97699,5.66658 -2.39103,0.84673 -1.40815,1.10726 -2.34479,1.954 -1.71621,-3.33831 -3.82331,-4.72218 -6.05738,-5.47119 -0.73523,4.32381 1.8466,5.39727 2.54019,7.81598 -3.57893,2.80072 -6.59443,5.60144 -6.05738,8.40216 0.37886,2.22647 1.52206,3.6886 0.977,6.838986 -3.39627,5.61246 -11.52434,13.80593 -9.76997,16.60895 -0.48506,4.40858 3.80849,7.32666 8.59757,7.42518 1.89933,-0.7839 5.02234,-6.92674 6.44818,-10.55157 8.45754,-9.30608 8.29278,-7.26224 12.50557,-9.96537 -0.91121,3.12838 -1.30873,7.79778 -2.7356,9.37917 -6.14532,5.31811 -12.61767,13.04478 -14.65495,22.47093 l 0.1954,9.18377 45.13725,0 c -7.04751,-26.07238 1.28916,-73.741806 -30.0915,-65.654196 -1.3566,-1.90005 -3.26795,-3.24536 -5.66658,-4.10338 z"
       id="path4173-7"
       inkscape:connector-curvature="0"
       sodipodi:nodetypes="ccccccccccccccccc" />
    <path
       style="fill:#000000;fill-opacity:1;fill-rule:evenodd;stroke:#ffffff;stroke-width:1;stroke-linecap:butt;stroke-linejoin:miter;stroke-miterlimit:4;stroke-dasharray:none;stroke-opacity:1"
       d="m 113.19176,77.386174 c -3.23133,-0.650767 -7.88185,4.370539 -1.01362,6.588559 -5.41656,5.065965 -5.09855,5.916558 -2.31877,12.153725 -12.63868,7.324092 -4.59952,23.643982 -2.24254,38.780852 l -18.75203,7.85558 0,4.30791 48.65393,-0.76022 0,-5.06812 -20.77929,-6.33515 c 6.61918,-18.49607 9.80529,-34.06218 -1.13006,-38.544914 4.13198,-9.90639 0.78009,-8.056468 -1.40399,-12.136263 0.0647,-0.929162 6.99068,-3.15001 -1.01363,-6.841959 z"
       id="path4175-7"
       inkscape:connector-curvature="0"
       sodipodi:nodetypes="cccccccccccc" />
    <path
       style="fill:#000000;fill-opacity:1;fill-rule:evenodd;stroke:#ffffff;stroke-width:1;stroke-linecap:butt;stroke-linejoin:miter;stroke-miterlimit:4;stroke-dasharray:none;stroke-opacity:1"
       d="m 38.81312,97.465491 c -3.9474,-0.79498 -9.62848,5.339049 -1.23825,8.048579 -7.3059,5.56366 -15.98307,25.82103 -4.33385,28.17003 l -13.62067,7.73902 0,5.26254 38.07598,0 0,-6.19122 -13.31112,-6.81034 c 11.03334,-9.64457 4.35445,-21.33656 -4.33384,-27.86047 0.079,-1.13506 8.53982,-3.84806 -1.23825,-8.358139 z"
       id="path4175-1-4"
       inkscape:connector-curvature="0"
       sodipodi:nodetypes="cccccccccc" />
    <path
       style="fill:#000000;fill-opacity:1;fill-rule:evenodd;stroke:#ffffff;stroke-width:1;stroke-linecap:butt;stroke-linejoin:miter;stroke-miterlimit:4;stroke-dasharray:none;stroke-opacity:1"
       d="m 409.22123,82.798327 0,8.0138 -7.38111,0.21085 0,3.16332 7.59199,0 -0.21088,9.068213 c -5.615,1.09398 -6.54468,4.53055 -7.80288,7.8029 -23.9424,-22.414693 -37.59081,8.21549 -9.06821,24.46305 0.85552,5.60118 -5.11511,4.45386 -3.37421,7.3811 l 48.29347,-0.42175 c 1.17325,-3.78844 -5.11654,-2.81665 -5.06132,-6.53755 23.38826,-7.90026 15.9511,-49.300843 -12.44243,-25.72841 -0.7596,-2.83987 -0.67694,-5.83294 -7.38109,-7.592 l 0.21088,-8.435553 6.11577,0 0,-3.79598 -6.53755,-0.2109 0,-7.38109 z"
       id="path4192-1"
       inkscape:connector-curvature="0"
       sodipodi:nodetypes="ccccccccccccccccccc" />
    <path
       style="fill:#000000;fill-opacity:1;fill-rule:evenodd;stroke:#ffffff;stroke-width:1;stroke-linecap:butt;stroke-linejoin:miter;stroke-miterlimit:4;stroke-dasharray:none;stroke-opacity:1"
       d="m 306.22465,145.10675 55.8693,-0.20847 c 0.57818,-18.70435 0.90158,-40.29778 9.17257,-55.452366 -5.6605,6.581081 -11.75749,10.979696 -15.84354,25.433046 -3.61407,-9.79806 -3.75998,-19.100686 -3.54394,-28.351589 -5.693,9.567015 -9.24627,22.190809 -11.04878,37.315689 l -5.21169,-43.98665 -8.3387,44.82052 c -0.63441,-11.08883 -3.04965,-26.434892 -8.13023,-35.856413 0.67351,10.792191 -0.61724,19.496823 -4.37782,27.517713 -3.69933,-16.854831 -3.93442,-16.710028 -12.29958,-25.433044 2.63804,12.460664 7.80837,33.187664 3.75241,54.201564 z"
       id="path4194-6"
       inkscape:connector-curvature="0"
       sodipodi:nodetypes="cccccccccccc" />
  </g>
</svg>
